<svg width="512" height="512" xmlns="http://www.w3.org/2000/svg">

 <g>
  <title>background</title>
  <rect fill="none" id="canvas_background" height="602" width="802" y="-1" x="-1"/>
 </g>
 <g>
  <title>Layer 1</title>
  <ellipse ry="202.000012" rx="242.500001" id="svg_20" cy="232.999995" cx="254.999987" fill-opacity="null" stroke-opacity="null" stroke-width="1.5" stroke="#000" fill="#fff"/>
  <rect id="svg_21" height="43.000001" width="48.999999" y="388.000003" x="89.500001" fill-opacity="null" stroke-opacity="null" stroke-width="0" stroke="#000" fill="#fff"/>
  <rect id="svg_22" height="22" width="36" y="427" x="74.5" fill-opacity="null" stroke-opacity="null" stroke-width="0" stroke="#000" fill="#fff"/>
  <g id="svg_1">
   <g id="svg_2">
    <path id="svg_3" d="m256,21.952c-141.162987,0 -256,95.424 -256,212.715008c0,60.266983 30.805,117.268997 84.885002,157.716995l-41.109001,82.218994c-2.176003,4.330994 -1.131001,9.578979 2.495998,12.778992c2.005001,1.770996 4.500999,2.666992 7.040001,2.666992c2.069,0 4.139,-0.596985 5.952,-1.812988l89.963005,-60.394989c33.876999,12.970978 69.780991,19.540985 106.751999,19.540985c141.161987,-0.000977 256.020996,-95.424988 256.020996,-212.714981s-114.837006,-212.715008 -256,-212.715008zm-0.020996,404.096004c-36.160004,0 -71.167999,-6.740997 -104.042999,-20.032013c-3.264008,-1.322998 -6.997009,-0.959991 -9.94101,1.024017l-61.055992,40.980988l27.09301,-54.186981c2.367996,-4.757019 0.895996,-10.517029 -3.477005,-13.547028c-52.907009,-36.628998 -83.242998,-89.707001 -83.242998,-145.599991c0,-105.536011 105.280001,-191.380997 234.667009,-191.380997s234.667007,85.824005 234.667007,191.360001s-105.281036,191.382004 -234.667023,191.382004z"/>
   </g>
  </g>
  <g id="svg_4"/>
  <g id="svg_5"/>
  <g id="svg_6"/>
  <g id="svg_7"/>
  <g id="svg_8"/>
  <g id="svg_9"/>
  <g id="svg_10"/>
  <g id="svg_11"/>
  <g id="svg_12"/>
  <g id="svg_13"/>
  <g id="svg_14"/>
  <g id="svg_15"/>
  <g id="svg_16"/>
  <g id="svg_17"/>
  <g id="svg_18"/>
 </g>
</svg>