<?xml version="1.0" encoding="UTF-8" standalone="no"?>
<!DOCTYPE svg PUBLIC "-//W3C//DTD SVG 1.1//EN" "http://www.w3.org/Graphics/SVG/1.1/DTD/svg11.dtd">
<svg version="1.1" xmlns="http://www.w3.org/2000/svg" xmlns:xlink="http://www.w3.org/1999/xlink" preserveAspectRatio="xMidYMid meet" viewBox="0 0 640 640" width="256" height="256"><defs><path d="M415.16 193.3C415.16 286.24 325.33 361.7 214.69 361.7C104.04 361.7 14.21 286.24 14.21 193.3C14.21 100.36 104.04 24.91 214.69 24.91C325.33 24.91 415.16 100.36 415.16 193.3Z" id="fGjjw2CYS"></path><path d="M82.64 315.19L158.55 315.19L158.55 377.2L82.64 377.2L82.64 315.19Z" id="bufbsfXtG"></path><path d="M81.52 327.74C33.68 293.2 6.42 243.54 6.42 190.43C6.42 90.29 103.98 8.83 223.92 8.83C343.85 8.83 441.42 90.29 441.42 190.43C441.42 290.56 343.85 372.02 223.92 372.02C209.71 372.02 195.4 370.84 181.31 368.49C174.66 372.19 141.39 390.71 81.52 424.04C81.52 366.26 81.52 334.16 81.52 327.74ZM35.67 190.43C35.67 235.96 60.67 278.79 104.27 307.93C104.71 308.22 106.87 309.66 110.77 312.27L110.77 374.26L176.23 337.83C179.35 338.41 181.08 338.73 181.43 338.8C195.44 341.43 209.74 342.76 223.91 342.76C327.71 342.76 412.15 274.43 412.15 190.43C412.16 106.43 327.71 38.09 223.92 38.09C120.12 38.09 35.67 106.43 35.67 190.43Z" id="a31Twqzh09"></path></defs><g><g><g><use xlink:href="#fGjjw2CYS" opacity="1" fill="#ffffff" fill-opacity="1"></use></g><g><use xlink:href="#bufbsfXtG" opacity="1" fill="#ffffff" fill-opacity="1"></use></g><g><use xlink:href="#a31Twqzh09" opacity="1" fill="#000000" fill-opacity="1"></use><g><use xlink:href="#a31Twqzh09" opacity="1" fill-opacity="0" stroke="#000000" stroke-width="1" stroke-opacity="0"></use></g></g></g></g></svg>